<?xml version="1.0" encoding="iso-8859-1"?>
<!-- Uploaded to: SVG Repo, www.svgrepo.com, Generator: SVG Repo Mixer Tools -->
<svg height="800px" width="800px" version="1.1" id="Layer_1" xmlns="http://www.w3.org/2000/svg" xmlns:xlink="http://www.w3.org/1999/xlink" 
	 viewBox="0 0 484.217 484.217" xml:space="preserve">
<g>
	<path style="fill:#E4C6A1;" d="M228.308,389.338c1.6,8.8,0,18.4-5.6,25.6l-7.2,11.2c-5.6,7.2-12.8,12.8-21.6,14.4s-18.4,0-25.6-5.6
		l-84.8-56.8c-4.8-3.2-8.8-8-11.2-13.6l-54.4-131.2c-2.4-4.8-2.4-10.4,0-15.2s5.6-8,10.4-9.6c9.6-3.2,20.8,2.4,24.8,12l60.8,143.2
		c0.8,1.6,1.6,2.4,3.2,3.2l2.4,1.6c0,0,0,0,0.8,0c4.8,3.2,16,11.2,45.6,31.2c1.6,0.8,3.2,1.6,4.8,1.6c2.4,0,4.8-0.8,6.4-3.2
		c2.4-4,1.6-8.8-2.4-11.2c-15.2-10.4-37.6-25.6-44.8-30.4c-4.8-7.2-5.6-16.8-0.8-23.2c6.4-9.6,19.2-11.2,29.6-4.8l56,38.4
		C221.908,372.538,226.708,380.538,228.308,389.338z"/>
	<path style="fill:#E4C6A1;" d="M469.108,218.138c-2.4-4.8-5.6-8-10.4-9.6c-3.2-0.8-6.4-0.8-9.6-0.8c-9.6-1.6-19.2,3.2-23.2,12
		l-61.6,143.2c-0.8,1.6-1.6,2.4-2.4,3.2l-2.4,2.4c0,0,0,0-0.8,0c-4.8,3.2-16,11.2-45.6,31.2l0,0c-0.8-0.8-1.6-1.6-2.4-2.4
		c-2.4-4-1.6-8.8,2.4-11.2c15.2-10.4,37.6-25.6,44.8-30.4c4.8-7.2,5.6-16,0.8-23.2c-4.8-6.4-12.8-9.6-20.8-8
		c-5.6-0.8-11.2,0-16.8,3.2l-56,38.4c-8,4.8-12.8,12.8-14.4,21.6c-1.6,8.8,0,18.4,5.6,25.6l8,12c5.6,7.2,12.8,12.8,21.6,14.4
		c3.2,0.8,7.2,0.8,10.4,0c8,0.8,16.8-0.8,23.2-5.6l84-56c4.8-3.2,8.8-8,11.2-13.6l54.4-131.2
		C471.508,228.538,471.508,222.938,469.108,218.138z"/>
</g>
<path style="fill:#875426;" d="M294.708,331.738l-33.6,22.4c-9.6,6.4-16,15.2-19.2,25.6c-3.2-10.4-10.4-19.2-19.2-25.6l-32.8-22.4
	l54.4-44.8L294.708,331.738z"/>
<path style="fill:#996632;" d="M294.708,331.738l-33.6,22.4c-9.6,6.4-16,15.2-19.2,25.6c-3.2-10.4-10.4-19.2-19.2-25.6l-32.8-22.4
	l37.6-19.2c10.4-5.6,23.2-5.6,34.4,0L294.708,331.738z"/>
<path style="fill:#42210B;" d="M397.108,260.538c1.6-3.2,4-4.8,7.2-4.8c5.6,0,9.6,5.6,7.2,11.2l-10.4,23.2c-1.6,4.8-8,6.4-12,3.2
	c0,0-0.8-0.8-1.6-0.8c-2.4-2.4-3.2-5.6-1.6-8.8L397.108,260.538z"/>
<path style="fill:#67BC34;" d="M337.908,179.738v6.4c0,22.4-18.4,40.8-40.8,40.8h-42.4v-6.4c0-22.4,18.4-40.8,40.8-40.8H337.908z"/>
<path style="fill:#7AC943;" d="M269.908,188.538c-9.6,7.2-15.2,19.2-15.2,32v6.4h42.4c3.2,0,6.4-0.8,9.6-1.6
	c9.6-7.2,15.2-19.2,15.2-32v-6.4h-42.4C275.508,187.738,272.308,187.738,269.908,188.538z"/>
<path style="fill:#42210B;" d="M245.908,59.738c11.2,0.8,16.8,4,16.8,8.8c0,4-1.6,5.6-5.6,5.6c-0.8,0-3.2-0.8-6.4-0.8
	c-2.4-0.8-4.8-0.8-6.4-0.8c-5.6,0-8.8,2.4-8.8,7.2c0,2.4,1.6,4.8,5.6,6.4c0,0,3.2,1.6,8,3.2c12,4,18.4,10.4,18.4,19.2
	c0,3.2-0.8,5.6-1.6,8c-0.8,2.4-2.4,4.8-4,6.4c-1.6,1.6-4,3.2-6.4,4.8c-2.4,0.8-5.6,1.6-8,2.4v7.2c0,2.4-0.8,4-2.4,4s-2.4-1.6-2.4-4
	v-7.2c-12.8-1.6-20-4.8-20-9.6c0-4,2.4-5.6,6.4-5.6c1.6,0,4,0.8,8,1.6s6.4,1.6,8.8,1.6s4.8-0.8,6.4-2.4c1.6-1.6,2.4-3.2,2.4-5.6
	c0-3.2-1.6-5.6-4-7.2c-0.8-0.8-1.6-0.8-3.2-1.6c-1.6-0.8-3.2-0.8-4.8-1.6c-5.6-1.6-10.4-4-12.8-5.6c-4-3.2-5.6-7.2-5.6-12
	c0-5.6,1.6-10.4,5.6-13.6c3.2-3.2,8-5.6,13.6-6.4v-7.2c0-2.4,0.8-4,2.4-4s2.4,1.6,2.4,4v4.8H245.908z"/>
<path style="fill:#FF9900;" d="M249.908,114.938c-1.6,1.6-4,2.4-6.4,2.4s-4.8-0.8-8.8-1.6c-3.2-1.6-5.6-1.6-7.2-1.6
	c-4.8,0-6.4,1.6-6.4,5.6c0,5.6,6.4,8.8,20,9.6v7.2c0,2.4,0.8,4,2.4,4s2.4-1.6,2.4-4v-7.2c3.2,0,5.6-0.8,8-2.4
	c2.4-0.8,4.8-2.4,6.4-4.8c1.6-1.6,3.2-4,4-6.4c0.8-2.4,1.6-5.6,1.6-8c0-8.8-6.4-16-18.4-19.2c-4.8-1.6-7.2-2.4-8-3.2
	c-3.2-1.6-5.6-4-5.6-6.4c0-4.8,3.2-7.2,8.8-7.2c1.6,0,3.2,0.8,6.4,0.8c4.8,1.6,6.4,1.6,8,1.6c4,0,5.6-1.6,5.6-5.6
	c0-4.8-5.6-8-16.8-8.8v-4.8c0-2.4-0.8-4-2.4-4s-2.4,1.6-2.4,4v5.6c-5.6,0.8-10.4,3.2-13.6,6.4c-4,3.2-5.6,8-5.6,13.6s1.6,9.6,5.6,12
	c2.4,2.4,7.2,4,12.8,5.6c2.4,0.8,4,1.6,4.8,1.6c1.6,0.8,2.4,0.8,3.2,1.6c3.2,1.6,4,4,4,7.2
	C253.108,111.738,252.308,113.338,249.908,114.938z M245.108,42.138c28.8,0,52.8,23.2,52.8,52.8c0,28.8-23.2,52-52.8,52
	c-28.8,0-52.8-23.2-52.8-52C192.308,65.338,215.508,42.138,245.108,42.138z"/>
<path style="fill:#67BC34;" d="M235.508,247.738h-31.2c-2.4,0-4.8,1.6-6.4,3.2h-7.2c-1.6,0-4,0-5.6-0.8c-0.8-2.4-2.4-4-4.8-4.8
	c-16-5.6-28-20.8-28-39.2v-6.4h42.4c22.4,0,40.8,18.4,40.8,40.8L235.508,247.738L235.508,247.738z"/>
<path style="fill:#7AC943;" d="M193.908,199.738h-26.4v6.4c0,18.4,12,33.6,28,39.2c1.6,0.8,3.2,1.6,4,4c1.6-0.8,2.4-1.6,4.8-1.6h16
	h15.2v-6.4C235.508,218.138,217.108,199.738,193.908,199.738z"/>
<g>
	<path style="fill:#42210B;" d="M224.308,211.738c9.6,7.2,16,19.2,16,32.8v6.4h-8h-34.4h-0.8c1.6-2.4,4-3.2,6.4-3.2h31.2v-6.4
		c0-22.4-18.4-40.8-40.8-40.8h-42.4v6.4c0,18.4,12,33.6,28,39.2c2.4,0.8,4,2.4,4.8,4.8c-20-2.4-35.2-20-35.2-40.8v-6.4l0,0
		c0,0,0-0.8,0-1.6v-6.4h42.4C205.108,195.738,217.108,202.138,224.308,211.738z"/>
	<path style="fill:#42210B;" d="M165.108,400.538c-29.6-20-40.8-28-45.6-31.2c0,0,0,0-0.8,0l-2.4-1.6c-0.8-0.8-2.4-2.4-3.2-3.2
		l-60-143.2c-4-9.6-15.2-15.2-24.8-12c-4.8,1.6-8.8,4.8-10.4,8.8c-2.4,4.8-2.4,9.6,0,14.4l54.4,131.2c2.4,5.6,6.4,10.4,11.2,13.6
		l84,58.4c8,4.8,16.8,7.2,25.6,5.6s16.8-6.4,21.6-14.4l8-12c4.8-7.2,7.2-16.8,5.6-25.6c-1.6-8.8-7.2-16.8-14.4-21.6l-56-38.4
		c-9.6-6.4-23.2-4.8-29.6,4.8c-4.8,6.4-4,16,0.8,23.2c7.2,4.8,29.6,20,44.8,30.4c4,2.4,4.8,7.2,2.4,11.2c-1.6,2.4-4,3.2-6.4,3.2
		C168.308,401.338,166.708,401.338,165.108,400.538z M241.908,379.738c3.2-10.4,10.4-19.2,19.2-25.6l33.6-23.2l-50.4-44l-54.4,44.8
		l32.8,22.4C232.308,360.538,238.708,369.338,241.908,379.738z M297.108,94.138c0-28.8-23.2-52.8-52.8-52.8
		c-28.8,0-52.8,23.2-52.8,52.8c0,28.8,23.2,52,52.8,52C273.908,146.938,297.108,122.938,297.108,94.138z M296.308,226.938
		c22.4,0,40.8-18.4,40.8-40.8v-6.4h-41.6c-22.4,0-40.8,18.4-40.8,40.8v6.4H296.308z M317.908,315.738c16.8-12,40-8,51.2,8.8
		c0,0,0,0,0.8,0.8l6.4-14.4c1.6-3.2,4-4.8,7.2-4.8c2.4,0,4,0.8,5.6,2.4c2.4,2.4,3.2,5.6,1.6,8.8l-20,47.2c-0.8,1.6-1.6,2.4-2.4,3.2
		l-2.4,1.6l0,0c-4.8,3.2-16,11.2-45.6,31.2c-1.6,0.8-3.2,1.6-4,1.6c-2.4,0-4.8-0.8-6.4-3.2c-2.4-4-1.6-8.8,2.4-11.2
		c15.2-10.4,37.6-25.6,44.8-30.4c4.8-7.2,5.6-16.8,0.8-23.2c-4-5.6-10.4-8.8-16.8-8.8c-4,0-8.8,1.6-12.8,4l-56,38.4
		c-8.8,6.4-14.4,15.2-15.2,26.4c-0.8,8,2.4,16,6.4,22.4l7.2,10.4c6.4,8.8,15.2,14.4,26.4,15.2c8,0.8,16-2.4,22.4-6.4l81.6-57.6
		c4.8-3.2,8.8-8,11.2-13.6l54.4-131.2c2.4-4.8,2.4-10.4,0-14.4c-2.4-4.8-5.6-8-10.4-9.6c-9.6-3.2-20.8,2.4-24.8,12l-8,18.4
		c-1.6,3.2-4,4.8-7.2,4.8c-1.6,0-3.2-0.8-4.8-1.6c-3.2-2.4-4-5.6-2.4-9.6l8-18.4c7.2-16.8,26.4-26.4,44-20.8c8.8,3.2,16,8.8,20,17.6
		s4,18.4,0.8,27.2l-55.2,131.2c-3.2,8-9.6,15.2-16.8,20.8l-84,57.6c-8,5.6-18.4,8.8-28,8.8c-4.8,0-9.6-0.8-14.4-2.4
		c-12-3.2-21.6-11.2-28-20.8l-7.2-10.4c-2.4-4-4.8-8-6.4-12.8c-1.6,4-3.2,8.8-6.4,12.8l-6.4,10.4c-6.4,9.6-16.8,17.6-28,20.8
		c-4.8,1.6-9.6,2.4-14.4,2.4c-9.6,0-20-3.2-28-8.8l-84-57.6c-8-4.8-13.6-12-16.8-20.8l-55.2-131.2c-4-8.8-3.2-19.2,0-27.2
		c4.8-8.8,12-14.4,20.8-17.6c17.6-5.6,36.8,3.2,44,20.8l47.2,110.4c0,0,0,0,0-0.8c11.2-16,34.4-20,51.2-8.8l9.6,7.2l60-49.6v-10.4
		h-32.8c-4,0-8-3.2-8-8c0-1.6,0.8-3.2,1.6-4h0.8h34.4h8v-6.4c0-13.6-6.4-24.8-16-32.8c-7.2-9.6-19.2-16-32.8-16h-42.4v6.4
		c0,0,0,0.8,0,1.6l0,0v6.4c0,20.8,15.2,37.6,35.2,40.8c0,0.8,0,1.6,0,2.4c0,5.6-4.8,9.6-10.4,8c-22.4-7.2-39.2-28.8-39.2-53.6v-14.4
		c0-4.8,3.2-8,8-8h50.4c16.8,0,32,7.2,42.4,19.2v-42.4c-33.6-4-60-32.8-60-67.2c0-38.4,32-69.6,70.4-68
		c36.8,0.8,66.4,32.8,66.4,69.6c-0.8,34.4-27.2,62.4-60,66.4v21.6c10.4-12,25.6-19.2,42.4-19.2h50.4c4,0,8,3.2,8,8v12.8
		c0,31.2-25.6,56.8-56.8,56.8h-44v30.4l56,48.8L317.908,315.738z"/>
</g>
<path style="fill:#FFC600;" d="M192.308,95.738c0.8,28,24,50.4,52,50.4c28.8,0,52-23.2,52-52.8c0-7.2-1.6-14.4-4-20.8
	c-9.6-12.8-26.4-22.4-44.8-22.4C220.308,50.138,197.108,70.138,192.308,95.738z M262.708,69.338c0,4-1.6,5.6-5.6,5.6
	c-0.8,0-3.2,0-6.4-0.8c-2.4-0.8-4.8-0.8-6.4-0.8c-5.6,0-8.8,2.4-8.8,7.2c0,2.4,1.6,4.8,4.8,6.4c0.8,0,3.2,1.6,8,2.4
	c12,4,18.4,10.4,18.4,19.2c0,3.2-0.8,5.6-1.6,8c-0.8,2.4-2.4,4.8-4,6.4c-1.6,1.6-4,3.2-6.4,4.8c-2.4,0.8-5.6,1.6-8,2.4v7.2
	c0,2.4-0.8,4-3.2,4c-1.6,0-2.4-1.6-2.4-4v-7.2c-12.8-1.6-20-4.8-20-9.6c0-4,2.4-5.6,6.4-5.6c1.6,0,4,0.8,8,1.6s6.4,1.6,8.8,1.6
	s4.8-0.8,6.4-2.4c1.6-1.6,2.4-3.2,2.4-5.6c0-3.2-1.6-5.6-4-7.2c-0.8-0.8-1.6-0.8-3.2-1.6c-1.6-0.8-3.2-0.8-4.8-1.6
	c-5.6-1.6-10.4-4-12.8-5.6c-4-3.2-5.6-7.2-5.6-12c0-5.6,1.6-10.4,5.6-13.6c3.2-3.2,8-5.6,13.6-6.4v-7.2c0-2.4,0.8-4,2.4-4
	s3.2,1.6,3.2,4v5.6C257.108,61.338,262.708,63.738,262.708,69.338z"/>
<g>
	<path style="fill:#CC9966;" d="M83.508,378.138l84,57.6c8,4.8,16.8,7.2,25.6,5.6c5.6-0.8,10.4-3.2,14.4-7.2
		c-21.6,8.8-75.2-28.8-105.6-52.8c-14.4-11.2-26.4-26.4-32.8-44l-49.6-121.6c-0.8,0.8-1.6,1.6-1.6,3.2c-2.4,4.8-2.4,9.6,0,15.2
		l54.4,131.2C74.708,370.138,77.908,374.938,83.508,378.138z"/>
	<path style="fill:#CC9966;" d="M469.108,218.138c-0.8-1.6-1.6-2.4-2.4-4l-1.6,0.8c-0.8,2.4-36.8,93.6-51.2,131.2
		c-4,10.4-10.4,19.2-19.2,25.6l-94.4,69.6c7.2,0,13.6-1.6,20-5.6l83.2-57.6c4.8-3.2,8.8-8,11.2-13.6l54.4-131.2
		C471.508,228.538,471.508,222.938,469.108,218.138z"/>
</g>
</svg>